<?xml version="1.0" standalone="no"?>
<!DOCTYPE svg PUBLIC "-//W3C//DTD SVG 20010904//EN"
 "http://www.w3.org/TR/2001/REC-SVG-20010904/DTD/svg10.dtd">
<svg version="1.0" xmlns="http://www.w3.org/2000/svg"
 width="150.000000pt" height="150.000000pt" viewBox="0 0 150.000000 150.000000"
 preserveAspectRatio="xMidYMid meet">
<metadata>
Created by potrace 1.11, written by Peter Selinger 2001-2013
</metadata>
<g transform="translate(0.000000,150.000000) scale(0.100000,-0.100000)"
fill="#000000" stroke="none">
<path d="M110 1233 c-35 -13 -72 -47 -90 -83 -19 -37 -20 -60 -20 -397 0 -404
3 -418 74 -462 20 -13 50 -43 67 -67 83 -121 234 -171 377 -125 74 24 138 71
173 127 l21 34 354 0 c369 0 382 1 416 44 16 19 18 58 18 438 0 242 -4 427
-10 442 -21 57 -11 56 -717 55 -356 0 -655 -3 -663 -6z m143 -62 c4 -1 7 -104
7 -229 l0 -228 -44 -31 c-78 -55 -134 -165 -137 -267 -1 -31 -3 -35 -8 -18 -3
13 -6 176 -6 362 1 327 1 341 21 367 30 40 88 55 167 44z m1173 -4 c5 -4 8
-190 8 -413 1 -330 -2 -408 -13 -417 -9 -8 -114 -11 -345 -12 l-332 0 1 80 c0
44 -3 89 -7 100 -8 20 -4 20 265 19 149 -1 278 1 285 3 17 7 15 50 -3 56 -8 4
-132 6 -276 7 -231 0 -264 -2 -281 -16 -15 -15 -18 -15 -18 -2 0 17 -70 94
-114 125 l-29 20 358 0 c315 0 360 2 370 16 13 18 14 221 1 234 -10 10 -822
11 -832 1 -4 -4 -7 -55 -8 -113 l-1 -105 -52 -1 c-29 -1 -58 -2 -65 -3 -9 -1
-12 49 -13 194 0 107 1 204 3 215 3 20 10 20 547 20 299 0 547 -4 551 -8z
m-187 -321 l-2 -63 -357 0 -357 1 -2 63 -1 63 360 0 360 0 -1 -64z"/>
</g>
</svg>
